<svg width="105" height="41" viewBox="0 0 105 41" fill="none" xmlns="http://www.w3.org/2000/svg">
<path d="M0 4C0 1.79086 1.79086 0 4 0H100.968C103.178 0 104.968 1.79086 104.968 4V37C104.968 39.2091 103.178 41 100.968 41H4C1.79086 41 0 39.2091 0 37V4Z" fill="#0074E5"/>
<path fill-rule="evenodd" clip-rule="evenodd" d="M91.1819 25.2698C90.8949 24.9713 90.9042 24.4965 91.2027 24.2094L95.1393 20.5L91.2027 16.7906C90.9042 16.5035 90.8949 16.0287 91.1819 15.7302C91.4689 15.4316 91.9436 15.4223 92.2421 15.7094L96.7407 19.9594C96.8877 20.1008 96.9708 20.296 96.9708 20.5C96.9708 20.704 96.8877 20.8992 96.7407 21.0406L92.2421 25.2906C91.9436 25.5777 91.4689 25.5684 91.1819 25.2698Z" fill="white"/>
<path d="M71.6357 29.8328V26.3128H72.5757L73.5157 29.0228L74.4857 26.3128H75.3957V29.8328H74.7557V27.7928C74.7557 27.7394 74.759 27.6361 74.7657 27.4828C74.7723 27.3228 74.779 27.2028 74.7857 27.1228H74.7457L73.7357 29.8328H73.2057L72.2457 27.1228H72.2057C72.2123 27.2294 72.219 27.3494 72.2257 27.4828C72.2323 27.6161 72.2357 27.7028 72.2357 27.7428V29.8328H71.6357ZM69.5657 29.8328V26.8528H68.5557V26.3128H71.2157V26.8528H70.1957V29.8328H69.5657Z" fill="white"/>
<path d="M14.1227 32.88L13.5949 31.044H10.6318L10.104 32.88H7.87263L10.7878 24.276H13.403L16.3541 32.88H14.1227ZM13.139 29.34L12.6352 27.624C12.5952 27.48 12.5392 27.288 12.4672 27.048C12.4033 26.8 12.3353 26.548 12.2633 26.292C12.1993 26.036 12.1473 25.82 12.1074 25.644C12.0674 25.82 12.0154 26.04 11.9514 26.304C11.8874 26.56 11.8234 26.812 11.7595 27.06C11.6955 27.3 11.6435 27.488 11.6035 27.624L11.0997 29.34H13.139Z" fill="white"/>
<path d="M20.0493 33C19.0576 33 18.2819 32.732 17.722 32.196C17.1622 31.652 16.8823 30.792 16.8823 29.616C16.8823 28.816 17.0262 28.164 17.3142 27.66C17.6021 27.148 17.994 26.772 18.4898 26.532C18.9937 26.292 19.5695 26.172 20.2173 26.172C20.6492 26.172 21.037 26.216 21.3809 26.304C21.7248 26.392 22.0367 26.504 22.3167 26.64L21.7288 28.164C21.4489 28.052 21.189 27.96 20.9491 27.888C20.7091 27.816 20.4652 27.78 20.2173 27.78C19.8014 27.78 19.4815 27.932 19.2576 28.236C19.0416 28.532 18.9337 28.988 18.9337 29.604C18.9337 30.22 19.0496 30.672 19.2816 30.96C19.5135 31.24 19.8294 31.38 20.2293 31.38C20.5732 31.38 20.9011 31.332 21.213 31.236C21.5249 31.132 21.8208 30.988 22.1007 30.804V32.46C21.8208 32.644 21.5209 32.78 21.201 32.868C20.8891 32.956 20.5052 33 20.0493 33Z" fill="white"/>
<path d="M26.3638 33C25.3721 33 24.5964 32.732 24.0365 32.196C23.4767 31.652 23.1968 30.792 23.1968 29.616C23.1968 28.816 23.3408 28.164 23.6287 27.66C23.9166 27.148 24.3085 26.772 24.8043 26.532C25.3082 26.292 25.884 26.172 26.5318 26.172C26.9637 26.172 27.3515 26.216 27.6954 26.304C28.0393 26.392 28.3512 26.504 28.6312 26.64L28.0433 28.164C27.7634 28.052 27.5035 27.96 27.2636 27.888C27.0236 27.816 26.7797 27.78 26.5318 27.78C26.1159 27.78 25.796 27.932 25.5721 28.236C25.3561 28.532 25.2482 28.988 25.2482 29.604C25.2482 30.22 25.3641 30.672 25.5961 30.96C25.828 31.24 26.1439 31.38 26.5438 31.38C26.8877 31.38 27.2156 31.332 27.5275 31.236C27.8394 31.132 28.1353 30.988 28.4152 30.804V32.46C28.1353 32.644 27.8354 32.78 27.5155 32.868C27.2036 32.956 26.8197 33 26.3638 33Z" fill="white"/>
<path d="M30.8789 23.676C31.1748 23.676 31.4267 23.74 31.6347 23.868C31.8506 23.996 31.9586 24.244 31.9586 24.612C31.9586 24.972 31.8506 25.22 31.6347 25.356C31.4267 25.484 31.1748 25.548 30.8789 25.548C30.575 25.548 30.3151 25.484 30.0991 25.356C29.8912 25.22 29.7872 24.972 29.7872 24.612C29.7872 24.244 29.8912 23.996 30.0991 23.868C30.3151 23.74 30.575 23.676 30.8789 23.676ZM31.8746 26.292V32.88H29.8592V26.292H31.8746Z" fill="white"/>
<path d="M35.6949 33C34.9831 33 34.4033 32.712 33.9554 32.136C33.5075 31.56 33.2836 30.712 33.2836 29.592C33.2836 28.464 33.5115 27.612 33.9674 27.036C34.4233 26.46 35.0191 26.172 35.7549 26.172C36.2187 26.172 36.5946 26.264 36.8825 26.448C37.1704 26.632 37.4024 26.86 37.5783 27.132H37.6263C37.6023 26.988 37.5743 26.784 37.5423 26.52C37.5183 26.248 37.5063 25.98 37.5063 25.716V23.76H39.5337V32.88H37.9982L37.5903 32.028H37.5063C37.3384 32.3 37.1105 32.532 36.8225 32.724C36.5426 32.908 36.1667 33 35.6949 33ZM36.4626 31.392C36.8945 31.392 37.1984 31.26 37.3744 30.996C37.5583 30.732 37.6543 30.332 37.6623 29.796V29.616C37.6623 29.024 37.5743 28.576 37.3984 28.272C37.2304 27.96 36.9105 27.804 36.4387 27.804C36.0948 27.804 35.8228 27.956 35.6229 28.26C35.423 28.564 35.323 29.02 35.323 29.628C35.323 30.228 35.423 30.672 35.6229 30.96C35.8308 31.248 36.1108 31.392 36.4626 31.392Z" fill="white"/>
<path d="M44.1127 26.172C45.0404 26.172 45.7762 26.428 46.32 26.94C46.8639 27.444 47.1358 28.188 47.1358 29.172V30.108H42.973C42.989 30.54 43.129 30.884 43.3929 31.14C43.6568 31.396 44.0327 31.524 44.5206 31.524C44.9444 31.524 45.3283 31.484 45.6722 31.404C46.0161 31.324 46.372 31.196 46.7399 31.02V32.52C46.42 32.688 46.0761 32.808 45.7082 32.88C45.3403 32.96 44.8885 33 44.3526 33C43.6888 33 43.097 32.88 42.5771 32.64C42.0653 32.4 41.6614 32.032 41.3655 31.536C41.0776 31.04 40.9336 30.404 40.9336 29.628C40.9336 28.46 41.2256 27.592 41.8094 27.024C42.3932 26.456 43.161 26.172 44.1127 26.172ZM44.1487 27.576C43.8368 27.576 43.5768 27.676 43.3689 27.876C43.169 28.076 43.049 28.384 43.009 28.8H45.2763C45.2683 28.448 45.1684 28.156 44.9764 27.924C44.7925 27.692 44.5166 27.576 44.1487 27.576Z" fill="white"/>
<path d="M52.4207 26.172C53.1164 26.172 53.6763 26.364 54.1002 26.748C54.532 27.124 54.748 27.736 54.748 28.584V32.88H52.7326V29.148C52.7326 28.692 52.6566 28.348 52.5046 28.116C52.3527 27.884 52.1127 27.768 51.7848 27.768C51.289 27.768 50.9531 27.952 50.7771 28.32C50.6092 28.68 50.5252 29.2 50.5252 29.88V32.88H48.4978V26.292H50.0334L50.3093 27.144H50.4053C50.6132 26.824 50.8891 26.584 51.233 26.424C51.5849 26.256 51.9808 26.172 52.4207 26.172Z" fill="white"/>
<path d="M59.4396 31.392C59.6395 31.392 59.8275 31.372 60.0034 31.332C60.1873 31.292 60.3713 31.24 60.5552 31.176V32.664C60.3393 32.76 60.0914 32.84 59.8115 32.904C59.5315 32.968 59.1996 33 58.8158 33C58.4079 33 58.044 32.936 57.7241 32.808C57.4122 32.672 57.1643 32.444 56.9803 32.124C56.8044 31.796 56.7164 31.344 56.7164 30.768V27.804H55.8766V26.964L56.8843 26.316L57.4362 24.924H58.7318V26.292H60.4833V27.804H58.7318V30.696C58.7318 30.928 58.7958 31.104 58.9237 31.224C59.0517 31.336 59.2236 31.392 59.4396 31.392Z" fill="white"/>
<path d="M66.5449 30.888C66.5449 31.544 66.317 32.06 65.8611 32.436C65.4132 32.812 64.7095 33 63.7497 33C63.2859 33 62.878 32.972 62.5261 32.916C62.1822 32.86 61.8343 32.76 61.4824 32.616V30.984C61.8663 31.16 62.2662 31.296 62.6821 31.392C63.0979 31.48 63.4498 31.524 63.7377 31.524C64.0417 31.524 64.2616 31.484 64.3976 31.404C64.5335 31.324 64.6015 31.212 64.6015 31.068C64.6015 30.964 64.5655 30.872 64.4935 30.792C64.4295 30.712 64.2936 30.624 64.0856 30.528C63.8857 30.424 63.5858 30.288 63.1859 30.12C62.794 29.96 62.4701 29.792 62.2142 29.616C61.9663 29.432 61.7783 29.22 61.6504 28.98C61.5304 28.732 61.4704 28.424 61.4704 28.056C61.4704 27.432 61.7104 26.964 62.1902 26.652C62.6701 26.332 63.3139 26.172 64.1216 26.172C64.5455 26.172 64.9454 26.216 65.3213 26.304C65.6972 26.392 66.085 26.528 66.4849 26.712L65.9091 28.08C65.5892 27.936 65.2733 27.82 64.9614 27.732C64.6495 27.644 64.3696 27.6 64.1216 27.6C63.6578 27.6 63.4258 27.72 63.4258 27.96C63.4258 28.056 63.4578 28.14 63.5218 28.212C63.5938 28.276 63.7258 28.356 63.9177 28.452C64.1176 28.54 64.4055 28.664 64.7814 28.824C65.1573 28.976 65.4772 29.136 65.7411 29.304C66.0051 29.472 66.205 29.684 66.341 29.94C66.4769 30.188 66.5449 30.504 66.5449 30.888Z" fill="white"/>
<path d="M16.1887 17.12H13.5495L10.0946 10.844H10.0466C10.0546 10.996 10.0626 11.2 10.0706 11.456C10.0866 11.712 10.1026 11.992 10.1186 12.296C10.1346 12.592 10.1466 12.88 10.1546 13.16V17.12H8.33111V8.552H10.9583L14.4013 14.756H14.4373C14.4293 14.612 14.4173 14.416 14.4013 14.168C14.3933 13.92 14.3813 13.652 14.3653 13.364C14.3573 13.068 14.3533 12.788 14.3533 12.524V8.552H16.1887V17.12Z" fill="white"/>
<path d="M24.1932 13.808C24.1932 14.912 23.9013 15.76 23.3175 16.352C22.7417 16.944 21.9499 17.24 20.9422 17.24C20.3184 17.24 19.7626 17.108 19.2747 16.844C18.7949 16.58 18.415 16.192 18.1351 15.68C17.8631 15.168 17.7272 14.544 17.7272 13.808C17.7272 12.72 18.0151 11.884 18.5909 11.3C19.1668 10.708 19.9625 10.412 20.9782 10.412C21.602 10.412 22.1539 10.544 22.6337 10.808C23.1216 11.072 23.5015 11.456 23.7734 11.96C24.0533 12.464 24.1932 13.08 24.1932 13.808ZM19.7786 13.808C19.7786 14.416 19.8705 14.88 20.0545 15.2C20.2384 15.52 20.5423 15.68 20.9662 15.68C21.3821 15.68 21.682 15.52 21.8659 15.2C22.0499 14.88 22.1419 14.416 22.1419 13.808C22.1419 13.2 22.0499 12.744 21.8659 12.44C21.682 12.128 21.3781 11.972 20.9542 11.972C20.5383 11.972 20.2384 12.128 20.0545 12.44C19.8705 12.744 19.7786 13.2 19.7786 13.808Z" fill="white"/>
<path d="M31.4837 8.552C33.787 8.552 34.9386 9.404 34.9386 11.108C34.9386 11.668 34.7907 12.132 34.4948 12.5C34.2069 12.868 33.843 13.164 33.4031 13.388L35.9103 17.12H33.619L31.6876 13.904H30.8839V17.12H28.8445V8.552H31.4837ZM31.3997 10.16H30.8839V12.308H31.3997C31.8875 12.308 32.2514 12.22 32.4914 12.044C32.7393 11.86 32.8633 11.572 32.8633 11.18C32.8633 10.836 32.7473 10.58 32.5154 10.412C32.2834 10.244 31.9115 10.16 31.3997 10.16Z" fill="white"/>
<path d="M39.5569 10.412C40.4846 10.412 41.2204 10.668 41.7642 11.18C42.308 11.684 42.58 12.428 42.58 13.412V14.348H38.4172C38.4332 14.78 38.5732 15.124 38.8371 15.38C39.101 15.636 39.4769 15.764 39.9647 15.764C40.3886 15.764 40.7725 15.724 41.1164 15.644C41.4603 15.564 41.8162 15.436 42.1841 15.26V16.76C41.8642 16.928 41.5203 17.048 41.1524 17.12C40.7845 17.2 40.3326 17.24 39.7968 17.24C39.133 17.24 38.5412 17.12 38.0213 16.88C37.5095 16.64 37.1056 16.272 36.8097 15.776C36.5218 15.28 36.3778 14.644 36.3778 13.868C36.3778 12.7 36.6697 11.832 37.2536 11.264C37.8374 10.696 38.6052 10.412 39.5569 10.412ZM39.5929 11.816C39.2809 11.816 39.021 11.916 38.8131 12.116C38.6132 12.316 38.4932 12.624 38.4532 13.04H40.7205C40.7125 12.688 40.6125 12.396 40.4206 12.164C40.2367 11.932 39.9607 11.816 39.5929 11.816Z" fill="white"/>
<path d="M47.7809 10.412C48.5166 10.412 49.1045 10.704 49.5443 11.288C49.9842 11.864 50.2041 12.704 50.2041 13.808C50.2041 14.56 50.0962 15.192 49.8802 15.704C49.6643 16.208 49.3684 16.592 48.9925 16.856C48.6246 17.112 48.2007 17.24 47.7209 17.24C47.249 17.24 46.8771 17.156 46.6052 16.988C46.3413 16.82 46.1294 16.636 45.9694 16.436H45.8854C45.9094 16.588 45.9294 16.748 45.9454 16.916C45.9614 17.084 45.9694 17.264 45.9694 17.456V20H43.942V10.532H45.5855L45.8734 11.372H45.9694C46.1374 11.116 46.3653 10.892 46.6532 10.7C46.9411 10.508 47.317 10.412 47.7809 10.412ZM47.0731 12.008C46.6652 12.008 46.3813 12.14 46.2213 12.404C46.0614 12.668 45.9774 13.072 45.9694 13.616V13.796C45.9694 14.38 46.0494 14.828 46.2093 15.14C46.3693 15.452 46.6652 15.608 47.0971 15.608C47.7929 15.608 48.1408 15 48.1408 13.784C48.1408 13.176 48.0528 12.728 47.8768 12.44C47.7009 12.152 47.433 12.008 47.0731 12.008Z" fill="white"/>
<path d="M57.7222 13.808C57.7222 14.912 57.4303 15.76 56.8465 16.352C56.2706 16.944 55.4789 17.24 54.4712 17.24C53.8474 17.24 53.2915 17.108 52.8037 16.844C52.3238 16.58 51.944 16.192 51.664 15.68C51.3921 15.168 51.2562 14.544 51.2562 13.808C51.2562 12.72 51.5441 11.884 52.1199 11.3C52.6957 10.708 53.4915 10.412 54.5072 10.412C55.131 10.412 55.6828 10.544 56.1627 10.808C56.6505 11.072 57.0304 11.456 57.3023 11.96C57.5823 12.464 57.7222 13.08 57.7222 13.808ZM53.3075 13.808C53.3075 14.416 53.3995 14.88 53.5835 15.2C53.7674 15.52 54.0713 15.68 54.4952 15.68C54.9111 15.68 55.211 15.52 55.3949 15.2C55.5789 14.88 55.6708 14.416 55.6708 13.808C55.6708 13.2 55.5789 12.744 55.3949 12.44C55.211 12.128 54.9071 11.972 54.4832 11.972C54.0673 11.972 53.7674 12.128 53.5835 12.44C53.3995 12.744 53.3075 13.2 53.3075 13.808Z" fill="white"/>
<path d="M62.9401 10.412C63.044 10.412 63.16 10.42 63.288 10.436C63.4159 10.444 63.5159 10.456 63.5879 10.472L63.4199 12.368C63.26 12.328 63.044 12.308 62.7721 12.308C62.5162 12.308 62.2603 12.352 62.0044 12.44C61.7564 12.52 61.5485 12.668 61.3805 12.884C61.2206 13.1 61.1406 13.412 61.1406 13.82V17.12H59.1132V10.532H60.6368L60.9487 11.612H61.0327C61.2246 11.284 61.4845 11.004 61.8124 10.772C62.1483 10.532 62.5242 10.412 62.9401 10.412Z" fill="white"/>
<path d="M67.6299 15.632C67.8299 15.632 68.0178 15.612 68.1937 15.572C68.3777 15.532 68.5616 15.48 68.7456 15.416V16.904C68.5296 17 68.2817 17.08 68.0018 17.144C67.7219 17.208 67.39 17.24 67.0061 17.24C66.5982 17.24 66.2343 17.176 65.9144 17.048C65.6025 16.912 65.3546 16.684 65.1707 16.364C64.9947 16.036 64.9067 15.584 64.9067 15.008V12.044H64.067V11.204L65.0747 10.556L65.6265 9.164H66.9221V10.532H68.6736V12.044H66.9221V14.936C66.9221 15.168 66.9861 15.344 67.1141 15.464C67.242 15.576 67.414 15.632 67.6299 15.632Z" fill="white"/>
<path d="M72.8398 10.412C73.7675 10.412 74.5033 10.668 75.0471 11.18C75.591 11.684 75.8629 12.428 75.8629 13.412V14.348H71.7002C71.7162 14.78 71.8561 15.124 72.12 15.38C72.384 15.636 72.7598 15.764 73.2477 15.764C73.6716 15.764 74.0554 15.724 74.3993 15.644C74.7432 15.564 75.0991 15.436 75.467 15.26V16.76C75.1471 16.928 74.8032 17.048 74.4353 17.12C74.0674 17.2 73.6156 17.24 73.0797 17.24C72.4159 17.24 71.8241 17.12 71.3043 16.88C70.7924 16.64 70.3886 16.272 70.0926 15.776C69.8047 15.28 69.6608 14.644 69.6608 13.868C69.6608 12.7 69.9527 11.832 70.5365 11.264C71.1203 10.696 71.8881 10.412 72.8398 10.412ZM72.8758 11.816C72.5639 11.816 72.304 11.916 72.096 12.116C71.8961 12.316 71.7761 12.624 71.7361 13.04H74.0035C73.9955 12.688 73.8955 12.396 73.7036 12.164C73.5196 11.932 73.2437 11.816 72.8758 11.816Z" fill="white"/>
<path d="M79.3003 17.24C78.5886 17.24 78.0087 16.952 77.5609 16.376C77.113 15.8 76.8891 14.952 76.8891 13.832C76.8891 12.704 77.117 11.852 77.5729 11.276C78.0287 10.7 78.6245 10.412 79.3603 10.412C79.8242 10.412 80.2001 10.504 80.488 10.688C80.7759 10.872 81.0078 11.1 81.1838 11.372H81.2318C81.2078 11.228 81.1798 11.024 81.1478 10.76C81.1238 10.488 81.1118 10.22 81.1118 9.956V8H83.1392V17.12H81.6036L81.1958 16.268H81.1118C80.9439 16.54 80.7159 16.772 80.428 16.964C80.1481 17.148 79.7722 17.24 79.3003 17.24ZM80.0681 15.632C80.5 15.632 80.8039 15.5 80.9798 15.236C81.1638 14.972 81.2597 14.572 81.2677 14.036V13.856C81.2677 13.264 81.1798 12.816 81.0038 12.512C80.8359 12.2 80.516 12.044 80.0441 12.044C79.7002 12.044 79.4283 12.196 79.2284 12.5C79.0284 12.804 78.9285 13.26 78.9285 13.868C78.9285 14.468 79.0284 14.912 79.2284 15.2C79.4363 15.488 79.7162 15.632 80.0681 15.632Z" fill="white"/>
</svg>
