<svg width="79" height="41" viewBox="0 0 79 41" fill="none" xmlns="http://www.w3.org/2000/svg">
<path d="M0 4C0 1.79086 1.79086 0 4 0H75C77.2091 0 79 1.79086 79 4V37C79 39.2091 77.2091 41 75 41H4C1.79086 41 0 39.2091 0 37V4Z" fill="#008738"/>
<path fill-rule="evenodd" clip-rule="evenodd" d="M65.1198 25.2698C64.8327 24.9713 64.842 24.4965 65.1406 24.2094L69.0783 20.5L65.1406 16.7906C64.842 16.5035 64.8327 16.0287 65.1198 15.7302C65.4069 15.4316 65.8817 15.4223 66.1802 15.7094L70.6802 19.9594C70.8273 20.1008 70.9104 20.296 70.9104 20.5C70.9104 20.704 70.8273 20.8992 70.6802 21.0406L66.1802 25.2906C65.8817 25.5777 65.4069 25.5684 65.1198 25.2698Z" fill="white"/>
<path d="M52.926 29.8328V26.3128H53.866L54.806 29.0228L55.776 26.3128H56.686V29.8328H56.046V27.7928C56.046 27.7394 56.0494 27.6361 56.056 27.4828C56.0627 27.3228 56.0694 27.2028 56.076 27.1228H56.036L55.026 29.8328H54.496L53.536 27.1228H53.496C53.5027 27.2294 53.5094 27.3494 53.516 27.4828C53.5227 27.6161 53.526 27.7028 53.526 27.7428V29.8328H52.926ZM50.856 29.8328V26.8528H49.846V26.3128H52.506V26.8528H51.486V29.8328H50.856Z" fill="white"/>
<path d="M16.107 28.704C16.107 29.592 15.963 30.368 15.675 31.032C15.387 31.688 14.939 32.2 14.331 32.568C13.731 32.936 12.951 33.12 11.991 33.12C11.047 33.12 10.271 32.936 9.663 32.568C9.055 32.2 8.603 31.684 8.307 31.02C8.019 30.356 7.875 29.58 7.875 28.692C7.875 27.804 8.019 27.032 8.307 26.376C8.603 25.72 9.055 25.212 9.663 24.852C10.271 24.484 11.051 24.3 12.003 24.3C12.955 24.3 13.731 24.484 14.331 24.852C14.939 25.212 15.387 25.724 15.675 26.388C15.963 27.044 16.107 27.816 16.107 28.704ZM10.023 28.704C10.023 29.544 10.175 30.204 10.479 30.684C10.791 31.164 11.295 31.404 11.991 31.404C12.695 31.404 13.199 31.164 13.503 30.684C13.807 30.204 13.959 29.544 13.959 28.704C13.959 27.864 13.807 27.204 13.503 26.724C13.207 26.236 12.707 25.992 12.003 25.992C11.299 25.992 10.791 26.236 10.479 26.724C10.175 27.204 10.023 27.864 10.023 28.704Z" fill="white"/>
<path d="M23.1738 33L22.5858 30.42C22.5538 30.276 22.5098 30.092 22.4538 29.868C22.4058 29.636 22.3538 29.392 22.2978 29.136C22.2498 28.88 22.2018 28.648 22.1538 28.44C22.1138 28.224 22.0818 28.064 22.0578 27.96H22.0098C21.9938 28.064 21.9618 28.224 21.9138 28.44C21.8738 28.656 21.8258 28.892 21.7698 29.148C21.7138 29.404 21.6578 29.652 21.6018 29.892C21.5538 30.124 21.5138 30.32 21.4818 30.48L20.8818 33H18.7338L16.8978 26.412H18.8898L19.5498 29.148C19.5978 29.348 19.6418 29.584 19.6818 29.856C19.7298 30.12 19.7698 30.384 19.8018 30.648C19.8418 30.904 19.8698 31.124 19.8858 31.308H19.9218C19.9298 31.172 19.9458 31.008 19.9698 30.816C20.0018 30.616 20.0338 30.416 20.0658 30.216C20.1058 30.008 20.1418 29.824 20.1738 29.664C20.2058 29.504 20.2258 29.396 20.2338 29.34L20.9538 26.412H23.1858L23.8578 29.352C23.8818 29.48 23.9178 29.668 23.9658 29.916C24.0138 30.156 24.0578 30.404 24.0978 30.66C24.1378 30.916 24.1618 31.132 24.1698 31.308H24.2058C24.2218 31.14 24.2458 30.924 24.2778 30.66C24.3178 30.388 24.3618 30.116 24.4098 29.844C24.4578 29.564 24.5058 29.332 24.5538 29.148L25.2378 26.412H27.2058L25.3458 33H23.1738Z" fill="white"/>
<path d="M32.1241 26.292C32.8201 26.292 33.3801 26.484 33.8041 26.868C34.2361 27.244 34.4521 27.856 34.4521 28.704V33H32.4361V29.268C32.4361 28.812 32.3601 28.468 32.2081 28.236C32.0561 28.004 31.8161 27.888 31.4881 27.888C30.9921 27.888 30.6561 28.072 30.4801 28.44C30.3121 28.8 30.2281 29.32 30.2281 30V33H28.2001V26.412H29.7361L30.0121 27.264H30.1081C30.3161 26.944 30.5921 26.704 30.9361 26.544C31.2881 26.376 31.6841 26.292 32.1241 26.292Z" fill="white"/>
<path d="M39.0011 26.292C39.9291 26.292 40.6651 26.548 41.2091 27.06C41.7531 27.564 42.0251 28.308 42.0251 29.292V30.228H37.8611C37.8771 30.66 38.0171 31.004 38.2811 31.26C38.5451 31.516 38.9211 31.644 39.4091 31.644C39.8331 31.644 40.2171 31.604 40.5611 31.524C40.9051 31.444 41.2611 31.316 41.6291 31.14V32.64C41.3091 32.808 40.9651 32.928 40.5971 33C40.2291 33.08 39.7771 33.12 39.2411 33.12C38.5771 33.12 37.9851 33 37.4651 32.76C36.9531 32.52 36.5491 32.152 36.2531 31.656C35.9651 31.16 35.8211 30.524 35.8211 29.748C35.8211 28.58 36.1131 27.712 36.6971 27.144C37.2811 26.576 38.0491 26.292 39.0011 26.292ZM39.0371 27.696C38.7251 27.696 38.4651 27.796 38.2571 27.996C38.0571 28.196 37.9371 28.504 37.8971 28.92H40.1651C40.1571 28.568 40.0571 28.276 39.8651 28.044C39.6811 27.812 39.4051 27.696 39.0371 27.696Z" fill="white"/>
<path d="M47.2156 26.292C47.3196 26.292 47.4356 26.3 47.5636 26.316C47.6916 26.324 47.7916 26.336 47.8636 26.352L47.6956 28.248C47.5356 28.208 47.3196 28.188 47.0476 28.188C46.7916 28.188 46.5356 28.232 46.2796 28.32C46.0316 28.4 45.8236 28.548 45.6556 28.764C45.4956 28.98 45.4156 29.292 45.4156 29.7V33H43.3876V26.412H44.9116L45.2236 27.492H45.3076C45.4996 27.164 45.7596 26.884 46.0876 26.652C46.4236 26.412 46.7996 26.292 47.2156 26.292Z" fill="white"/>
<path d="M16.107 12.454C16.107 13.342 15.963 14.118 15.675 14.782C15.387 15.438 14.939 15.95 14.331 16.318C13.731 16.686 12.951 16.87 11.991 16.87C11.047 16.87 10.271 16.686 9.663 16.318C9.055 15.95 8.603 15.434 8.307 14.77C8.019 14.106 7.875 13.33 7.875 12.442C7.875 11.554 8.019 10.782 8.307 10.126C8.603 9.46999 9.055 8.96199 9.663 8.60199C10.271 8.23399 11.051 8.04999 12.003 8.04999C12.955 8.04999 13.731 8.23399 14.331 8.60199C14.939 8.96199 15.387 9.47399 15.675 10.138C15.963 10.794 16.107 11.566 16.107 12.454ZM10.023 12.454C10.023 13.294 10.175 13.954 10.479 14.434C10.791 14.914 11.295 15.154 11.991 15.154C12.695 15.154 13.199 14.914 13.503 14.434C13.807 13.954 13.959 13.294 13.959 12.454C13.959 11.614 13.807 10.954 13.503 10.474C13.207 9.98599 12.707 9.74199 12.003 9.74199C11.299 9.74199 10.791 9.98599 10.479 10.474C10.175 10.954 10.023 11.614 10.023 12.454Z" fill="white"/>
<path d="M21.5538 10.042C22.2498 10.042 22.8098 10.234 23.2338 10.618C23.6658 10.994 23.8818 11.606 23.8818 12.454V16.75H21.8658V13.018C21.8658 12.562 21.7898 12.218 21.6378 11.986C21.4858 11.754 21.2458 11.638 20.9178 11.638C20.4218 11.638 20.0858 11.822 19.9098 12.19C19.7418 12.55 19.6578 13.07 19.6578 13.75V16.75H17.6298V10.162H19.1658L19.4418 11.014H19.5378C19.7458 10.694 20.0218 10.454 20.3658 10.294C20.7178 10.126 21.1138 10.042 21.5538 10.042Z" fill="white"/>
<path d="M28.4308 10.042C29.3588 10.042 30.0948 10.298 30.6388 10.81C31.1828 11.314 31.4548 12.058 31.4548 13.042V13.978H27.2908C27.3068 14.41 27.4468 14.754 27.7108 15.01C27.9748 15.266 28.3508 15.394 28.8388 15.394C29.2628 15.394 29.6468 15.354 29.9908 15.274C30.3348 15.194 30.6908 15.066 31.0588 14.89V16.39C30.7388 16.558 30.3948 16.678 30.0268 16.75C29.6588 16.83 29.2068 16.87 28.6708 16.87C28.0068 16.87 27.4148 16.75 26.8948 16.51C26.3828 16.27 25.9788 15.902 25.6828 15.406C25.3948 14.91 25.2508 14.274 25.2508 13.498C25.2508 12.33 25.5428 11.462 26.1268 10.894C26.7108 10.326 27.4788 10.042 28.4308 10.042ZM28.4668 11.446C28.1548 11.446 27.8948 11.546 27.6868 11.746C27.4868 11.946 27.3668 12.254 27.3268 12.67H29.5948C29.5868 12.318 29.4868 12.026 29.2948 11.794C29.1108 11.562 28.8348 11.446 28.4668 11.446Z" fill="white"/>
</svg>
