<svg width="67" height="30" viewBox="0 0 67 30" fill="none" xmlns="http://www.w3.org/2000/svg">
<g id="View Report - Sm">
<path d="M0 4C0 1.79086 1.79086 0 4 0H63C65.2091 0 67 1.79086 67 4V26C67 28.2091 65.2091 30 63 30H4C1.79086 30 0 28.2091 0 26V4Z" fill="#DADFE8"/>
<path d="M2 19C2 17.8954 2.89543 17 4 17H63C64.1046 17 65 17.8954 65 19V26C65 27.1046 64.1046 28 63 28H4C2.89543 28 2 27.1046 2 26V19Z" fill="white"/>
<path d="M12.8171 4.40388H20.5288V12.5398H12.8171V4.40388Z" fill="black"/>
<path d="M21.0191 4.40388H28.7347V12.5398H21.0191V4.40388Z" fill="black"/>
<path d="M29.2213 4.40388H36.9368V12.5398H29.2213V4.40388Z" fill="black"/>
<path d="M37.4272 4.40388H45.1427V12.5398H37.4272V4.40388Z" fill="black"/>
<path d="M4.61115 4.4039H12.3267V12.5398H4.61115V4.4039Z" fill="black"/>
<path d="M8.64275 11.3266C7.04017 11.3266 6.19061 10.1327 6.19061 8.52417C6.19061 6.77217 7.20236 5.71788 8.65047 5.71788C9.97115 5.71788 10.4963 6.29154 10.867 7.31483L9.51934 7.86136C9.32625 7.35746 9.1409 7.028 8.65047 7.028C8.03261 7.028 7.75457 7.65205 7.75457 8.52417C7.75457 9.39241 8.01716 10.0165 8.66592 10.0165C9.13317 10.0165 9.33398 9.76064 9.62746 9.24512L10.8902 9.92344C10.5195 10.6366 9.91708 11.3266 8.64275 11.3266Z" fill="white"/>
<path d="M17.1074 9.05906H16.2153L16.3157 8.69471C16.5088 8.00477 16.5938 7.70243 16.6633 7.33808C16.7328 7.70243 16.8177 7.99702 17.0108 8.69471L17.1074 9.05906ZM19.378 11.2103L17.424 5.77989H15.9218L13.964 11.2103H15.5627L15.8562 10.249H17.4703L17.7638 11.2103H19.378Z" fill="white"/>
<path d="M25.6879 7.58227C25.6879 7.96988 25.4948 8.18694 25.0083 8.18694H24.1317V6.99698H25.0314C25.5025 6.99698 25.6879 7.2373 25.6879 7.58227ZM27.2789 11.2064L26.2015 9.12108C26.7923 8.85363 27.1708 8.34974 27.1708 7.53188C27.1708 6.24502 26.3328 5.76439 25.07 5.76439H22.6642V11.2064H24.1317V9.36915H24.7302L25.6107 11.2064H27.2789Z" fill="white"/>
<path d="M32.4573 7.05125V7.81097H34.1409V9.08232H32.4573V11.2064H30.9744V5.77989H35.2376V7.059L32.4573 7.05125Z" fill="white"/>
<path d="M41.7329 9.05131H40.8409L40.9375 8.69471C41.1305 8.00477 41.2155 7.70243 41.285 7.33808C41.3545 7.70243 41.4395 7.99702 41.6325 8.69471L41.7329 9.05131ZM44.0036 11.1948L42.0457 5.77989H40.5397L38.5857 11.1948H40.1844L40.4779 10.2335H42.0921L42.3856 11.1948H44.0036Z" fill="white"/>
<path d="M49.487 11.1444C49.3017 11.4545 49.097 11.7529 48.8808 12.0437L48.8112 12.1367H50.0779L50.0161 12.0437C49.8075 11.7026 49.6299 11.439 49.487 11.1444Z" fill="white"/>
<path d="M48.5603 10.032L46.7028 7.35746H48.5989L48.9271 7.8846C49.1357 8.20244 49.321 8.53191 49.4909 8.87301C49.6222 8.58618 49.8539 8.22182 50.0624 7.8846L50.3907 7.35746H52.252L50.3907 10.0009L51.9469 12.1367H52.9587V4.79924H46.0464V12.1367H47.0002L48.5603 10.032Z" fill="white"/>
<path d="M45.6293 4.40388V12.532H53.3449V4.40388H45.6293ZM48.8112 12.1367L48.8808 12.0437C49.097 11.7529 49.3017 11.4545 49.487 11.1444C49.6299 11.439 49.8075 11.7026 50.0161 12.0437L50.0779 12.1367H48.8112ZM52.9394 12.1367H51.9277L50.3753 10.001L52.2327 7.35746H50.3753L50.0432 7.88461C49.8385 8.22183 49.6068 8.58618 49.4717 8.87301C49.3056 8.53191 49.1164 8.20245 48.9079 7.88461L48.5796 7.35746H46.6836L48.541 10.032L46.9655 12.1367H46.0116V4.80699H52.9278L52.9394 12.1367Z" fill="black"/>
<path d="M58.5079 12.5437V11.5747L60.4541 11.7956L60.3576 10.9855L62.3888 9.45443L61.9833 8.89627L62.3888 7.59003L61.0797 7.71794L60.736 7.07451L59.4733 8.27998L59.9289 5.61323L59.0871 6.11712L58.226 4.40776L58.2221 4.40001L57.361 6.10937L56.5153 5.60548L56.9748 8.2761L55.7082 7.07064L55.3645 7.71019L54.0515 7.58616L54.4609 8.88852L54.0515 9.45056L56.0866 10.9777L55.9939 11.7917L57.9325 11.5708V12.5437H58.5079Z" fill="#EF0215"/>
<path d="M13.5504 19.9081L11.7837 25.0991H10.5841L8.82471 19.9081H9.93707L10.9113 22.998C10.9258 23.0513 10.9525 23.1507 10.9913 23.2961C11.0301 23.4366 11.0688 23.5869 11.1076 23.7468C11.1464 23.902 11.173 24.0328 11.1876 24.1395C11.2021 24.0328 11.2263 23.902 11.2603 23.7468C11.2991 23.5869 11.3354 23.4366 11.3693 23.2961C11.4081 23.1507 11.4372 23.0513 11.4566 22.998L12.4381 19.9081H13.5504Z" fill="black"/>
<path d="M16.2215 25.0991H13.8586V24.4739L14.4912 24.1831V20.8242L13.8586 20.5333V19.9081H16.2215V20.5333L15.589 20.8242V24.1831L16.2215 24.4739V25.0991Z" fill="black"/>
<path d="M20.1669 25.0991H17.1788V19.9081H20.1669V20.8096H18.2766V21.9511H20.0361V22.8526H18.2766V24.1903H20.1669V25.0991Z" fill="black"/>
<path d="M27.6959 19.9081L26.3727 25.0991H25.1222L24.417 22.3728C24.4024 22.3194 24.383 22.2395 24.3588 22.1328C24.3394 22.0262 24.3152 21.9099 24.2861 21.7839C24.2619 21.6578 24.2376 21.5391 24.2134 21.4276C24.194 21.3161 24.1819 21.2265 24.177 21.1586C24.1722 21.2265 24.1576 21.3161 24.1334 21.4276C24.114 21.5391 24.0922 21.6578 24.068 21.7839C24.0437 21.905 24.0195 22.0214 23.9953 22.1328C23.971 22.2395 23.9517 22.3219 23.9371 22.38L23.2392 25.0991H21.9887L20.6655 19.9081H21.7487L22.4103 22.7435C22.4394 22.855 22.4709 22.9956 22.5049 23.1652C22.5388 23.3349 22.5703 23.5045 22.5994 23.6741C22.6285 23.8438 22.6503 23.9868 22.6648 24.1031C22.6793 23.9819 22.7012 23.8389 22.7302 23.6741C22.7593 23.5045 22.7884 23.3421 22.8175 23.187C22.8514 23.0271 22.8805 22.9035 22.9047 22.8162L23.6608 19.9081H24.7005L25.4566 22.8162C25.4809 22.9035 25.5075 23.0271 25.5366 23.187C25.5705 23.3421 25.602 23.5045 25.6311 23.6741C25.6602 23.8438 25.682 23.9868 25.6965 24.1031C25.7111 23.9819 25.7329 23.8389 25.762 23.6741C25.7911 23.5045 25.8226 23.3373 25.8565 23.1725C25.8953 23.0028 25.9268 22.8599 25.951 22.7435L26.6126 19.9081H27.6959Z" fill="black"/>
<path d="M31.895 19.9081C32.6026 19.9081 33.1237 20.0365 33.4581 20.2934C33.7974 20.5503 33.967 20.9405 33.967 21.464C33.967 21.7015 33.921 21.9099 33.8289 22.0892C33.7417 22.2637 33.6229 22.414 33.4726 22.54C33.3272 22.6611 33.1697 22.7605 33.0001 22.8381L34.5269 25.0991H33.3054L32.0695 23.1071H31.4806V25.0991H30.3827V19.9081H31.895ZM31.815 20.8096H31.4806V22.2128H31.8368C32.2003 22.2128 32.4596 22.1522 32.6147 22.031C32.7747 21.9099 32.8547 21.7305 32.8547 21.493C32.8547 21.2458 32.7698 21.0714 32.6002 20.9696C32.4306 20.8629 32.1688 20.8096 31.815 20.8096Z" fill="black"/>
<path d="M38.2431 25.0991H35.255V19.9081H38.2431V20.8096H36.3528V21.9511H38.1123V22.8526H36.3528V24.1903H38.2431V25.0991Z" fill="black"/>
<path d="M41.0536 19.9081C41.7225 19.9081 42.2096 20.0535 42.515 20.3443C42.8252 20.6303 42.9803 21.0253 42.9803 21.5294C42.9803 21.8347 42.9173 22.1183 42.7913 22.38C42.6652 22.6418 42.4544 22.8526 42.1587 23.0125C41.8679 23.1725 41.4705 23.2525 40.9664 23.2525H40.4938V25.0991H39.396V19.9081H41.0536ZM40.9955 20.8096H40.4938V22.3509H40.8573C41.1675 22.3509 41.4123 22.2904 41.5917 22.1692C41.7758 22.0432 41.8679 21.842 41.8679 21.5657C41.8679 21.0617 41.5771 20.8096 40.9955 20.8096Z" fill="black"/>
<path d="M48.7452 22.4963C48.7452 23.0344 48.6555 23.5045 48.4762 23.9068C48.3017 24.3042 48.0303 24.6144 47.6619 24.8374C47.2984 25.0604 46.8355 25.1718 46.2733 25.1718C45.711 25.1718 45.2457 25.0604 44.8773 24.8374C44.5138 24.6144 44.2424 24.3018 44.0631 23.8995C43.8886 23.4972 43.8013 23.0271 43.8013 22.4891C43.8013 21.9511 43.8886 21.4833 44.0631 21.0859C44.2424 20.6885 44.5138 20.3807 44.8773 20.1626C45.2457 19.9396 45.7134 19.8281 46.2805 19.8281C46.8428 19.8281 47.3056 19.9396 47.6692 20.1626C48.0327 20.3807 48.3017 20.6909 48.4762 21.0932C48.6555 21.4906 48.7452 21.9583 48.7452 22.4963ZM44.9573 22.4963C44.9573 23.0392 45.0615 23.4682 45.2699 23.7832C45.4784 24.0934 45.8128 24.2485 46.2733 24.2485C46.7434 24.2485 47.0803 24.0934 47.2838 23.7832C47.4874 23.4682 47.5892 23.0392 47.5892 22.4963C47.5892 21.9535 47.4874 21.527 47.2838 21.2168C47.0803 20.9017 46.7458 20.7442 46.2805 20.7442C45.8152 20.7442 45.4784 20.9017 45.2699 21.2168C45.0615 21.527 44.9573 21.9535 44.9573 22.4963Z" fill="black"/>
<path d="M51.4054 19.9081C52.113 19.9081 52.6341 20.0365 52.9685 20.2934C53.3078 20.5503 53.4774 20.9405 53.4774 21.464C53.4774 21.7015 53.4314 21.9099 53.3393 22.0892C53.2521 22.2637 53.1333 22.414 52.9831 22.54C52.8377 22.6611 52.6801 22.7605 52.5105 22.8381L54.0373 25.0991H52.8158L51.5799 23.1071H50.991V25.0991H49.8932V19.9081H51.4054ZM51.3254 20.8096H50.991V22.2128H51.3472C51.7107 22.2128 51.9701 22.1522 52.1252 22.031C52.2851 21.9099 52.3651 21.7305 52.3651 21.493C52.3651 21.2458 52.2803 21.0714 52.1106 20.9696C51.941 20.8629 51.6792 20.8096 51.3254 20.8096Z" fill="black"/>
<path d="M56.7648 25.0991H55.667V20.8242H54.2565V19.9081H58.1752V20.8242H56.7648V25.0991Z" fill="black"/>
</g>
</svg>
